<?xml version="1.0" encoding="utf-8"?>
<!-- Generator: Adobe Illustrator 16.0.0, SVG Export Plug-In . SVG Version: 6.00 Build 0)  -->
<!DOCTYPE svg PUBLIC "-//W3C//DTD SVG 1.1//EN" "http://www.w3.org/Graphics/SVG/1.1/DTD/svg11.dtd">
<svg version="1.1" id="レイヤー_1" xmlns="http://www.w3.org/2000/svg" xmlns:xlink="http://www.w3.org/1999/xlink" x="0px"
	 y="0px" width="100px" height="100px" viewBox="0 0 100 100" enable-background="new 0 0 100 100" xml:space="preserve">
<g>
	<circle fill="none" stroke="#29ABE2" stroke-miterlimit="10" stroke-dasharray="12" cx="50" cy="50" r="49.175">
	
	  <animateTransform
	    attributeName="transform"
	    attributeType="XML"
	    type="rotate"
	    from="0 50 50"
	    to="360 50 50"
	    dur="10s"
	    repeatCount="indefinite" />
	 
	</circle>
</g>
<circle fill="#29ABE2" cx="50" cy="50" r="40.1"/>
<path fill="#FFFFFF" d="M37.167,57.333c0,1.61-1.306,2.917-2.917,2.917l0,0c-1.611,0-2.917-1.307-2.917-2.917V42.666
	c0-1.611,1.306-2.917,2.917-2.917l0,0c1.611,0,2.917,1.306,2.917,2.917V57.333z">
	
	<animateTransform id="ansk1jdf"
	  attributeName="transform"
	  attributeType="XML"
	  type="translate"
	  dur="1s"
	  values="0, 6; 0, -6; 0, 6"
	  repeatCount="indefinite" />
	
</path>
<path fill="#FFFFFF" d="M45,57.333c0,1.61-1.306,2.917-2.917,2.917l0,0c-1.611,0-2.917-1.307-2.917-2.917V42.666
	c0-1.611,1.306-2.917,2.917-2.917l0,0c1.611,0,2.917,1.306,2.917,2.917V57.333z">
	
	<animateTransform id="ansk1jdf"
	  attributeName="transform"
	  attributeType="XML"
	  type="translate"
	  dur="1s"
	  begin=".1"
	  values="0, 6; 0, -6; 0, 6"
	  repeatCount="indefinite" />
	  
</path>
<path fill="#FFFFFF" d="M52.834,57.333c0,1.61-1.306,2.917-2.917,2.917l0,0c-1.611,0-2.917-1.307-2.917-2.917V42.666
	c0-1.611,1.306-2.917,2.917-2.917l0,0c1.611,0,2.917,1.306,2.917,2.917V57.333z">
	
	<animateTransform id="ansk1jdf"
	  attributeName="transform"
	  attributeType="XML"
	  type="translate"
	  dur="1s"
	  begin=".2"
	  values="0, 6; 0, -6; 0, 6"
	  repeatCount="indefinite" />
	  
</path>
<path fill="#FFFFFF" d="M60.668,57.333c0,1.61-1.307,2.917-2.918,2.917l0,0c-1.61,0-2.916-1.307-2.916-2.917V42.666
	c0-1.611,1.306-2.917,2.916-2.917l0,0c1.611,0,2.918,1.306,2.918,2.917V57.333z">
	
	<animateTransform id="ansk1jdf"
	  attributeName="transform"
	  attributeType="XML"
	  type="translate"
	  dur="1s"
	  begin=".3"
	  values="0, 6; 0, -6; 0, 6"
	  repeatCount="indefinite" />
	  
</path>
<path fill="#FFFFFF" d="M68.502,57.333c0,1.61-1.307,2.917-2.918,2.917l0,0c-1.611,0-2.916-1.307-2.916-2.917V42.666
	c0-1.611,1.305-2.917,2.916-2.917l0,0c1.611,0,2.918,1.306,2.918,2.917V57.333z">
	
	<animateTransform id="ansk1jdf"
	  attributeName="transform"
	  attributeType="XML"
	  type="translate"
	  dur="1s"
	  begin=".4"
	  values="0, 6; 0, -6; 0, 6"
	  repeatCount="indefinite" />
	  
</path>
</svg>
